<svg width="83" height="135" viewBox="0 0 83 135" fill="none" xmlns="http://www.w3.org/2000/svg">
<path class="line" d="M80 7.44272C48.5079 -0.603474 15.5449 4.09014 3 7.44272V50.1881C11.6517 79.3556 32.5599 88.8825 41.9326 90C69.964 82.2891 78.9906 60.2459 80 50.1881V7.44272Z" stroke="white" stroke-width="4.45765"/>
<path d="M28.8103 127H26.7664C26.511 127 26.4258 126.851 26.511 126.553L29.8748 113.758C29.9741 113.46 30.187 113.311 30.5135 113.311H33.3451C33.6999 113.311 33.9128 113.46 33.9838 113.758L37.3476 126.553C37.4327 126.851 37.3476 127 37.0921 127H35.0483C34.8921 127 34.7857 126.972 34.7289 126.915C34.6721 126.844 34.6295 126.723 34.6012 126.553L34.005 124.211H29.8535L29.2574 126.553C29.229 126.723 29.1793 126.844 29.1083 126.915C29.0516 126.972 28.9522 127 28.8103 127ZM31.8973 115.887L30.3645 122.039H33.5154L31.9825 115.887H31.8973ZM46.6862 127H39.6818C39.3838 127 39.2347 126.851 39.2347 126.553V113.758C39.2347 113.46 39.3838 113.311 39.6818 113.311H41.4915C41.7895 113.311 41.9386 113.46 41.9386 113.758V124.403C41.9386 124.559 42.0237 124.637 42.194 124.637H46.6862C46.9701 124.637 47.112 124.793 47.112 125.105V126.553C47.112 126.851 46.9701 127 46.6862 127ZM56.2501 127H49.2457C48.9476 127 48.7986 126.851 48.7986 126.553V113.758C48.7986 113.46 48.9476 113.311 49.2457 113.311H51.0553C51.3534 113.311 51.5024 113.46 51.5024 113.758V124.403C51.5024 124.559 51.5876 124.637 51.7579 124.637H56.2501C56.534 124.637 56.6759 124.793 56.6759 125.105V126.553C56.6759 126.851 56.534 127 56.2501 127Z" fill="#44AD4E"/>
<path d="M54.4951 36.3739C51.3798 35.4393 48.1711 36.3116 46.0995 38.3832L41.6914 42.2928L39.3239 44.38H39.3394L35.1494 48.1027C33.8878 49.3644 32.1121 49.894 30.2897 49.5358C29.3243 49.3331 28.4361 48.8613 27.7277 48.175C27.0193 47.4886 26.5196 46.6157 26.2866 45.6573C26.0953 44.8799 26.0833 44.0692 26.2514 43.2865C26.4196 42.5039 26.7635 41.7696 27.2571 41.1394C27.7508 40.5092 28.3813 39.9995 29.101 39.6488C29.8206 39.2982 30.6106 39.1157 31.4111 39.1153C32.8286 39.1153 34.1526 39.6604 35.2117 40.7196L35.9438 41.3582C36.5357 41.8878 37.4236 41.8878 38.0155 41.3582C38.7164 40.7352 38.7164 39.6449 38.0155 39.0218L37.3613 38.4611C36.5812 37.6781 35.6538 37.0575 34.6325 36.6351C33.6112 36.2126 32.5163 35.9968 31.4111 36C26.7694 36 23 39.7695 23 44.38C23 48.9906 26.7694 52.76 31.4111 52.76C33.6541 52.76 35.7725 51.8878 37.2834 50.3769L41.6914 46.4828L41.707 46.4984L44.059 44.38H44.0434L48.2334 40.6573C49.4951 39.3956 51.2708 38.8661 53.0932 39.2243C55.0402 39.6137 56.6446 41.1713 57.0963 43.1028C57.2876 43.8801 57.2996 44.6908 57.1315 45.4735C56.9633 46.2562 56.6194 46.9904 56.1257 47.6206C55.6321 48.2508 55.0016 48.7606 54.2819 49.1112C53.5622 49.4619 52.7723 49.6444 51.9717 49.6448C50.5699 49.6448 49.2303 49.0996 48.1711 48.0404L47.4235 47.3862C47.139 47.1306 46.7701 46.9893 46.3877 46.9893C46.0052 46.9893 45.6363 47.1306 45.3518 47.3862C44.6509 48.0093 44.6509 49.0996 45.3518 49.7227L46.006 50.299C46.7882 51.078 47.7163 51.6951 48.7374 52.1147C49.7584 52.5343 50.8522 52.7483 51.9562 52.7444C57.0496 52.7444 61.0838 48.2273 60.2583 43.0093C59.791 39.9097 57.5013 37.2617 54.4951 36.3739Z" />
</svg>
