<svg width="83" height="135" viewBox="0 0 83 135" fill="none" xmlns="http://www.w3.org/2000/svg">
                  <path d="M33.852 56H22.152V52.904L25.284 51.464V34.832L22.152 33.392V30.296H33.852V33.392L30.72 34.832V51.464L33.852 52.904V56ZM47.8442 56H36.1442V52.904L39.2762 51.464V34.832L36.1442 33.392V30.296H47.8442V33.392L44.7122 34.832V51.464L47.8442 52.904V56ZM61.8364 56H50.1364V52.904L53.2684 51.464V34.832L50.1364 33.392V30.296H61.8364V33.392L58.7044 34.832V51.464L61.8364 52.904V56Z" />
                  <path d="M16.0044 127H13.6838C12.5625 127 11.6967 126.702 11.0864 126.106C10.4761 125.51 10.171 124.651 10.171 123.53V116.781C10.171 115.66 10.4761 114.801 11.0864 114.205C11.6967 113.609 12.5625 113.311 13.6838 113.311H16.0044C17.1115 113.311 17.9702 113.616 18.5805 114.226C19.205 114.822 19.5173 115.674 19.5173 116.781V117.781C19.5173 118.094 19.3611 118.25 19.0489 118.25H17.2605C16.9625 118.25 16.8134 118.094 16.8134 117.781V116.909C16.8134 116.454 16.7141 116.135 16.5154 115.95C16.3309 115.752 16.0115 115.652 15.5573 115.652H14.1096C13.6696 115.652 13.3503 115.752 13.1516 115.95C12.967 116.135 12.8748 116.454 12.8748 116.909V123.402C12.8748 123.856 12.967 124.183 13.1516 124.381C13.3503 124.566 13.6696 124.658 14.1096 124.658H15.5573C16.0115 124.658 16.3309 124.566 16.5154 124.381C16.7141 124.183 16.8134 123.856 16.8134 123.402V122.529C16.8134 122.217 16.9625 122.061 17.2605 122.061H19.0489C19.3611 122.061 19.5173 122.217 19.5173 122.529V123.53C19.5173 124.637 19.205 125.496 18.5805 126.106C17.9702 126.702 17.1115 127 16.0044 127ZM23.2661 127H21.2223C20.9668 127 20.8816 126.851 20.9668 126.553L24.3306 113.758C24.43 113.46 24.6429 113.311 24.9693 113.311H27.8009C28.1557 113.311 28.3686 113.46 28.4396 113.758L31.8034 126.553C31.8886 126.851 31.8034 127 31.5479 127H29.5041C29.348 127 29.2415 126.972 29.1848 126.915C29.128 126.844 29.0854 126.723 29.057 126.553L28.4609 124.211H24.3093L23.7132 126.553C23.6848 126.723 23.6352 126.844 23.5642 126.915C23.5074 126.972 23.4081 127 23.2661 127ZM26.3532 115.887L24.8203 122.039H27.9712L26.4383 115.887H26.3532ZM33.3499 123.508V123.083C33.3499 122.785 33.499 122.636 33.797 122.636H35.6067C35.9047 122.636 36.0538 122.785 36.0538 123.083V123.253C36.0538 123.792 36.1602 124.161 36.3731 124.36C36.586 124.559 36.9763 124.658 37.5441 124.658H38.5447C39.0982 124.658 39.4815 124.552 39.6944 124.339C39.9215 124.126 40.035 123.728 40.035 123.147V122.891C40.035 122.479 39.8647 122.167 39.524 121.954C39.1976 121.727 38.786 121.592 38.2892 121.55C37.7925 121.507 37.2531 121.429 36.6712 121.316C36.1034 121.188 35.5712 121.032 35.0744 120.847C34.5777 120.648 34.159 120.272 33.8183 119.719C33.4919 119.151 33.3286 118.427 33.3286 117.547V116.802C33.3286 115.695 33.6409 114.836 34.2654 114.226C34.8899 113.616 35.7557 113.311 36.8628 113.311H38.9918C40.1131 113.311 40.986 113.616 41.6105 114.226C42.235 114.836 42.5472 115.695 42.5472 116.802V117.207C42.5472 117.505 42.3982 117.654 42.1001 117.654H40.2905C39.9924 117.654 39.8434 117.505 39.8434 117.207V117.079C39.8434 116.525 39.7369 116.149 39.524 115.95C39.3111 115.752 38.9208 115.652 38.3531 115.652H37.5228C36.9409 115.652 36.5434 115.766 36.3305 115.993C36.1318 116.206 36.0325 116.632 36.0325 117.27V117.675C36.0325 118.342 36.6144 118.725 37.7783 118.825C38.9847 118.924 40.0563 119.165 40.993 119.548C41.4898 119.761 41.9014 120.145 42.2279 120.698C42.5685 121.238 42.7388 121.933 42.7388 122.785V123.508C42.7388 124.616 42.4266 125.474 41.8021 126.085C41.1776 126.695 40.3118 127 39.2047 127H36.8841C35.777 127 34.9112 126.695 34.2867 126.085C33.6622 125.474 33.3499 124.616 33.3499 123.508ZM49.4039 127H47.6156C47.3033 127 47.1472 126.851 47.1472 126.553V115.887C47.1472 115.73 47.0691 115.652 46.913 115.652H44.4859C44.1879 115.652 44.0389 115.503 44.0389 115.205V113.758C44.0389 113.46 44.1879 113.311 44.4859 113.311H52.5336C52.8316 113.311 52.9807 113.46 52.9807 113.758V115.205C52.9807 115.503 52.8316 115.652 52.5336 115.652H50.1065C49.9362 115.652 49.851 115.73 49.851 115.887V126.553C49.851 126.851 49.702 127 49.4039 127ZM62.0578 127H55.0534C54.7554 127 54.6063 126.851 54.6063 126.553V113.758C54.6063 113.46 54.7554 113.311 55.0534 113.311H56.8631C57.1611 113.311 57.3102 113.46 57.3102 113.758V124.403C57.3102 124.559 57.3953 124.637 57.5657 124.637H62.0578C62.3417 124.637 62.4836 124.793 62.4836 125.105V126.553C62.4836 126.851 62.3417 127 62.0578 127ZM71.5791 127H64.6173C64.3192 127 64.1702 126.851 64.1702 126.553V113.758C64.1702 113.46 64.3192 113.311 64.6173 113.311H71.5791C71.863 113.311 72.0049 113.46 72.0049 113.758V115.205C72.0049 115.503 71.863 115.652 71.5791 115.652H67.1295C66.9592 115.652 66.874 115.73 66.874 115.887V118.654C66.874 118.81 66.9592 118.889 67.1295 118.889H70.7701C71.0682 118.889 71.2172 119.038 71.2172 119.336V120.783C71.2172 121.081 71.0682 121.23 70.7701 121.23H67.1295C66.9592 121.23 66.874 121.308 66.874 121.465V124.424C66.874 124.58 66.9592 124.658 67.1295 124.658H71.5791C71.863 124.658 72.0049 124.807 72.0049 125.105V126.553C72.0049 126.851 71.863 127 71.5791 127Z" />
                  <path
                    class="line"
                    d="M80 7.44272C48.5079 -0.603474 15.5449 4.09014 3 7.44272V50.1881C11.6517 79.3556 32.5599 88.8825 41.9326 90C69.964 82.2891 78.9906 60.2459 80 50.1881V7.44272Z"
                    stroke-width="4.45765" stroke="white"
                  />
                </svg>