 <svg width="83" height="135" viewBox="0 0 83 135" fill="none" xmlns="http://www.w3.org/2000/svg">
                  <path d="M47.852 56H36.152V52.904L39.284 51.464V34.832L36.152 33.392V30.296H47.852V33.392L44.72 34.832V51.464L47.852 52.904V56Z" />
                  <path d="M22.3219 124.658H24.6425C25.0967 124.658 25.416 124.566 25.6005 124.381C25.7992 124.183 25.8986 123.856 25.8986 123.402V116.909C25.8986 116.454 25.7992 116.135 25.6005 115.95C25.416 115.752 25.0967 115.652 24.6425 115.652H22.3219C22.1657 115.652 22.0877 115.73 22.0877 115.887V124.424C22.0877 124.58 22.1657 124.658 22.3219 124.658ZM19.3839 126.553V113.758C19.3839 113.46 19.5329 113.311 19.8309 113.311H25.0896C26.1967 113.311 27.0553 113.616 27.6657 114.226C28.2902 114.822 28.6024 115.674 28.6024 116.781V123.53C28.6024 124.637 28.2902 125.496 27.6657 126.106C27.0553 126.702 26.1967 127 25.0896 127H19.8309C19.5329 127 19.3839 126.851 19.3839 126.553ZM32.578 127H30.5342C30.2787 127 30.1935 126.851 30.2787 126.553L33.6425 113.758C33.7418 113.46 33.9547 113.311 34.2812 113.311H37.1128C37.4676 113.311 37.6805 113.46 37.7515 113.758L41.1153 126.553C41.2004 126.851 41.1153 127 40.8598 127H38.816C38.6598 127 38.5534 126.972 38.4966 126.915C38.4398 126.844 38.3973 126.723 38.3689 126.553L37.7728 124.211H33.6212L33.0251 126.553C32.9967 126.723 32.947 126.844 32.8761 126.915C32.8193 126.972 32.7199 127 32.578 127ZM35.665 115.887L34.1322 122.039H37.2831L35.7502 115.887H35.665ZM45.2592 127H43.4495C43.1515 127 43.0024 126.851 43.0024 126.553V113.758C43.0024 113.46 43.1515 113.311 43.4495 113.311H48.5166C49.6236 113.311 50.4894 113.616 51.1139 114.226C51.7384 114.836 52.0507 115.695 52.0507 116.802V118.463C52.0507 120.067 51.4191 121.131 50.1559 121.656V121.741L52.4339 126.489C52.5617 126.83 52.441 127 52.072 127H50.3475C50.092 127 49.9075 126.972 49.794 126.915C49.6804 126.858 49.5882 126.737 49.5172 126.553L47.3882 121.954H45.9618C45.7914 121.954 45.7063 122.032 45.7063 122.188V126.553C45.7063 126.851 45.5572 127 45.2592 127ZM45.9405 119.783H48.0269C48.4811 119.783 48.8146 119.69 49.0275 119.506C49.2404 119.307 49.3469 118.995 49.3469 118.569V116.909C49.3469 116.469 49.2404 116.149 49.0275 115.95C48.8146 115.752 48.4811 115.652 48.0269 115.652H45.9405C45.7843 115.652 45.7063 115.73 45.7063 115.887V119.548C45.7063 119.705 45.7843 119.783 45.9405 119.783ZM56.9022 127H55.0925C54.7944 127 54.6454 126.851 54.6454 126.553V113.758C54.6454 113.46 54.7944 113.311 55.0925 113.311H56.9022C57.2002 113.311 57.3492 113.46 57.3492 113.758V119.825H57.3918C57.5054 119.485 57.7254 119.045 58.0518 118.505L61.2879 113.758C61.4724 113.46 61.7492 113.311 62.1182 113.311H64.2046C64.3608 113.311 64.453 113.36 64.4814 113.46C64.524 113.545 64.4885 113.658 64.3749 113.8L60.3298 119.399L64.8433 126.468C64.9427 126.638 64.9569 126.773 64.8859 126.872C64.8291 126.957 64.7014 127 64.5027 127H62.9485C62.4518 127 62.1182 126.851 61.9479 126.553L58.6905 121.337L57.3492 122.912V126.553C57.3492 126.851 57.2002 127 56.9022 127Z" />
                  <path
                    class="line"
                    d="M80 7.44272C48.5079 -0.603474 15.5449 4.09014 3 7.44272V50.1881C11.6517 79.3556 32.5599 88.8825 41.9326 90C69.964 82.2891 78.9906 60.2459 80 50.1881V7.44272Z" stroke="white" stroke-width="4.45765"
                  />
                </svg>