<svg width="83" height="135" viewBox="0 0 83 135" fill="none" xmlns="http://www.w3.org/2000/svg">
                  <path d="M40.852 56H29.152V52.904L32.284 51.464V34.832L29.152 33.392V30.296H40.852V33.392L37.72 34.832V51.464L40.852 52.904V56ZM54.8442 56H43.1442V52.904L46.2762 51.464V34.832L43.1442 33.392V30.296H54.8442V33.392L51.7122 34.832V51.464L54.8442 52.904V56Z" />
                  <path d="M12.6406 127H10.8309C10.5329 127 10.3839 126.851 10.3839 126.553V113.758C10.3839 113.46 10.5329 113.311 10.8309 113.311H17.6225C17.9063 113.311 18.0483 113.46 18.0483 113.758V115.205C18.0483 115.503 17.9063 115.652 17.6225 115.652H13.3432C13.1728 115.652 13.0877 115.73 13.0877 115.887V119.187C13.0877 119.357 13.1728 119.442 13.3432 119.442H16.9838C17.2818 119.442 17.4308 119.591 17.4308 119.889V121.316C17.4308 121.628 17.2818 121.784 16.9838 121.784H13.3432C13.1728 121.784 13.0877 121.862 13.0877 122.018V126.553C13.0877 126.851 12.9387 127 12.6406 127ZM27.3774 127H20.4156C20.1175 127 19.9685 126.851 19.9685 126.553V113.758C19.9685 113.46 20.1175 113.311 20.4156 113.311H27.3774C27.6613 113.311 27.8032 113.46 27.8032 113.758V115.205C27.8032 115.503 27.6613 115.652 27.3774 115.652H22.9278C22.7575 115.652 22.6723 115.73 22.6723 115.887V118.654C22.6723 118.81 22.7575 118.889 22.9278 118.889H26.5684C26.8665 118.889 27.0155 119.038 27.0155 119.336V120.783C27.0155 121.081 26.8665 121.23 26.5684 121.23H22.9278C22.7575 121.23 22.6723 121.308 22.6723 121.465V124.424C22.6723 124.58 22.7575 124.658 22.9278 124.658H27.3774C27.6613 124.658 27.8032 124.807 27.8032 125.105V126.553C27.8032 126.851 27.6613 127 27.3774 127ZM37.1605 113.311H38.9489C39.2611 113.311 39.4173 113.452 39.4173 113.736V123.53C39.4173 124.637 39.105 125.496 38.4805 126.106C37.8702 126.702 37.0115 127 35.9044 127H33.5625C32.4412 127 31.5754 126.702 30.9651 126.106C30.3548 125.51 30.0497 124.651 30.0497 123.53V113.758C30.0497 113.46 30.1987 113.311 30.4967 113.311H32.3064C32.6045 113.311 32.7535 113.46 32.7535 113.758V123.402C32.7535 123.856 32.8457 124.183 33.0303 124.381C33.229 124.566 33.5483 124.658 33.9883 124.658H35.4573C35.9115 124.658 36.2309 124.566 36.4154 124.381C36.6141 124.183 36.7134 123.856 36.7134 123.402V113.758C36.7134 113.46 36.8625 113.311 37.1605 113.311ZM45.0074 124.658H47.328C47.7822 124.658 48.1015 124.566 48.286 124.381C48.4847 124.183 48.5841 123.856 48.5841 123.402V116.909C48.5841 116.454 48.4847 116.135 48.286 115.95C48.1015 115.752 47.7822 115.652 47.328 115.652H45.0074C44.8513 115.652 44.7732 115.73 44.7732 115.887V124.424C44.7732 124.58 44.8513 124.658 45.0074 124.658ZM42.0694 126.553V113.758C42.0694 113.46 42.2184 113.311 42.5164 113.311H47.7751C48.8822 113.311 49.7409 113.616 50.3512 114.226C50.9757 114.822 51.2879 115.674 51.2879 116.781V123.53C51.2879 124.637 50.9757 125.496 50.3512 126.106C49.7409 126.702 48.8822 127 47.7751 127H42.5164C42.2184 127 42.0694 126.851 42.0694 126.553ZM55.2635 127H53.2197C52.9642 127 52.879 126.851 52.9642 126.553L56.328 113.758C56.4274 113.46 56.6403 113.311 56.9667 113.311H59.7983C60.1531 113.311 60.366 113.46 60.437 113.758L63.8008 126.553C63.886 126.851 63.8008 127 63.5453 127H61.5015C61.3453 127 61.2389 126.972 61.1821 126.915C61.1254 126.844 61.0828 126.723 61.0544 126.553L60.4583 124.211H56.3067L55.7106 126.553C55.6822 126.723 55.6325 126.844 55.5616 126.915C55.5048 126.972 55.4054 127 55.2635 127ZM58.3506 115.887L56.8177 122.039H59.9686L58.4357 115.887H58.3506ZM73.1395 127H66.135C65.837 127 65.688 126.851 65.688 126.553V113.758C65.688 113.46 65.837 113.311 66.135 113.311H67.9447C68.2428 113.311 68.3918 113.46 68.3918 113.758V124.403C68.3918 124.559 68.4769 124.637 68.6473 124.637H73.1395C73.4233 124.637 73.5653 124.793 73.5653 125.105V126.553C73.5653 126.851 73.4233 127 73.1395 127Z" />
                  <path
                    class="line"
                    d="M80 7.44272C48.5079 -0.603474 15.5449 4.09014 3 7.44272V50.1881C11.6517 79.3556 32.5599 88.8825 41.9326 90C69.964 82.2891 78.9906 60.2459 80 50.1881V7.44272Z"
                    stroke="white" stroke-width="4.45765" 
                  />
                </svg>