<svg width="103" height="100" viewBox="0 0 103 100" fill="none" xmlns="http://www.w3.org/2000/svg">
<g filter="url(#filter0_d)">
<ellipse cx="51.4365" cy="45.0849" rx="40.4365" ry="39.0849" fill="white"/>
<path d="M51.7342 49.8555C43.8848 49.8555 37.3436 47.4989 35.8569 44.3951C38.5923 52.4995 36.9273 60.0291 51.7342 60.0291C66.5411 60.0291 64.8761 52.4995 67.6115 44.3951C66.1249 47.4989 59.5837 49.8555 51.7342 49.8555Z" fill="#3E4347"/>
<path d="M44.4165 36.1758C52.8012 33.9342 72.068 37.3254 67.846 45.0274C70.1651 47.5564 70.9976 50.2579 59.937 50.0855C42.9299 53.9365 28.896 45.9471 35.0805 39.9119C33.5938 36.9805 36.8644 35.4861 44.4165 36.1758Z" fill="#6F7980"/>
<path d="M51.7316 49.5109C59.1648 49.5109 65.3492 47.2692 66.7764 44.3379C66.8953 44.0505 66.9548 43.7631 67.0737 43.4757C67.0737 43.3033 67.1332 43.1883 67.1332 43.0159C67.1332 39.4523 60.2352 36.5784 51.7911 36.5784C43.347 36.5784 36.449 39.4523 36.449 43.0159C36.449 43.1883 36.449 43.3033 36.5084 43.4757C36.5679 43.7631 36.6868 44.0505 36.8058 44.3379C38.114 47.2692 44.2984 49.5109 51.7316 49.5109Z" fill="#3E4347"/>
<path d="M51.7327 49.5112C59.1659 49.5112 65.3503 47.2695 66.7775 44.3381C66.7775 44.2232 66.8369 44.1657 66.8369 44.0508C65.5882 41.0044 59.2848 38.7053 51.6732 38.7053C44.0616 38.7053 37.7583 41.0044 36.5095 44.0508C36.569 44.1657 36.569 44.2232 36.569 44.3381C38.1151 47.2695 44.2995 49.5112 51.7327 49.5112Z" fill="#FBBF67"/>
<path d="M53.8148 41.8658C50.8415 41.8083 47.2141 44.1074 44.776 43.935C40.7324 43.6476 44.895 45.5444 47.7493 45.5444C49.6522 45.5444 50.9605 43.8775 51.9714 43.1878C53.3985 42.3256 56.907 41.9233 53.8148 41.8658Z" fill="#D33B23"/>
<path d="M45.0134 39.9673C44.2404 37.8981 39.7805 41.2893 43.5863 42.0365C44.1809 42.1515 45.6675 41.8066 45.0134 39.9673Z" fill="#FF8736"/>
<path d="M53.6347 46.4644C52.6832 43.9354 47.1529 48.1313 51.9102 48.9934C52.6238 49.1084 54.4672 48.706 53.6347 46.4644Z" fill="#FF8736"/>
<path d="M54.6471 39.2223C53.7551 37.1531 48.2248 40.5443 52.9226 41.2915C53.5767 41.349 55.4202 41.0041 54.6471 39.2223Z" fill="#FF8736"/>
<path d="M63.7452 41.464C63.3884 39.2224 56.312 40.4869 61.1882 42.8435C61.9018 43.1883 64.0426 43.4757 63.7452 41.464Z" fill="#FF8736"/>
<path d="M41.3866 43.4785C40.7325 42.6163 39.7811 41.4668 39.4243 42.0416C38.8891 42.8462 38.7107 44.4556 39.127 44.5131C42.1002 45.0879 41.8624 44.1682 41.3866 43.4785Z" fill="#89664C"/>
<path d="M57.7409 41.8663C56.6705 42.3261 56.0164 41.9813 55.5407 42.671C54.4108 44.2229 58.2761 44.7402 58.9897 43.8205C59.5249 43.1883 58.4545 41.5789 57.7409 41.8663Z" fill="#89664C"/>
<path d="M58.6321 45.7174C57.8591 45.3725 58.0375 46.5221 56.8482 45.6024C56.0157 44.9702 54.2317 46.5796 55.421 47.6716C56.7292 48.8787 57.086 47.7291 57.6212 47.8441C58.7511 48.0165 60.7134 46.5796 58.6321 45.7174Z" fill="#89664C"/>
<path d="M45.5492 46.0625C44.8356 45.3727 43.7058 47.327 44.1221 47.8443C45.014 48.9938 48.2252 48.7639 49.0577 47.9018C50.1281 46.8672 47.2737 47.6719 45.5492 46.0625Z" fill="#89664C"/>
<path d="M42.814 45.4872C42.814 45.4872 42.8735 46.177 42.9924 46.4644C42.2193 46.177 42.2193 44.855 42.2193 44.855C42.2193 44.855 41.6841 45.1424 41.7436 45.6597C40.9111 44.9699 40.1975 45.3148 40.1975 45.3148C40.1975 45.3148 41.2679 45.8896 41.4463 46.2919C40.8516 46.3494 40.4948 46.5218 40.257 46.9817C40.257 46.9817 41.4463 46.4069 42.3383 46.8092C41.9815 47.0966 42.1599 47.7864 42.1599 47.7864C43.587 46.3494 44.479 47.6139 45.1331 47.269C44.598 46.5793 43.8249 46.4644 43.8249 46.4644C43.5276 45.8896 42.814 45.4872 42.814 45.4872Z" fill="#699635"/>
<path d="M49.236 39.8544C48.5224 39.7395 47.8088 40.0843 47.8088 40.0843C47.8088 40.0843 48.4629 40.3717 48.7602 40.4867C48.1061 41.004 46.9168 40.3142 46.9168 40.3142C46.9168 40.3142 46.9168 40.889 47.3925 41.1189C46.3816 41.4638 46.2627 42.2685 46.2627 42.2685C46.2627 42.2685 47.3331 41.6937 47.7493 41.7512C47.452 42.2685 47.452 42.6708 47.8088 43.0732C47.8088 43.0732 47.9277 41.8087 48.7602 41.2914C48.8197 41.7512 49.5333 41.9236 49.5333 41.9236C48.9981 40.0269 50.6037 39.9119 50.6037 39.2222C49.7712 39.2222 49.236 39.8544 49.236 39.8544Z" fill="#699635"/>
<path d="M63.0934 45.0273C63.3907 44.7399 64.6395 44.5675 64.6395 44.5675C64.6395 44.5675 64.1043 43.9927 63.0339 44.2801C63.2718 43.8203 62.915 43.3605 62.915 43.3605C62.915 43.3605 62.3798 44.5675 61.5473 44.5675C61.7851 44.2801 62.0825 43.7053 62.0825 43.7053C62.0825 43.7053 61.25 43.8778 60.7742 44.3951C60.7742 44.3951 60.0012 44.1652 59.2876 44.625C59.7039 45.1998 61.0716 44.3376 61.7851 46.1769C61.7851 46.1769 62.2014 45.6021 62.023 45.1998C62.9745 45.1423 63.8664 46.1194 63.8664 46.1194C63.8664 45.6021 63.6286 45.3147 63.0934 45.0273Z" fill="#699635"/>
<g opacity="0.6">
<path opacity="0.6" d="M52.2072 30.9454C50.0069 28.7612 51.4936 25.5425 51.4936 25.5425C51.4936 25.5425 46.8553 29.7958 49.7691 32.7272C53.1586 36.1184 51.4936 38.1876 51.4936 38.1876C51.4936 38.1876 55.6562 34.3941 52.2072 30.9454Z" fill="#A6AEB0"/>
<path opacity="0.6" d="M45.6674 32.8996C44.0024 31.3477 45.1322 28.9911 45.1322 28.9911C45.1322 28.9911 41.6832 32.0949 43.8834 34.2216C46.4405 36.6931 45.1322 38.1875 45.1322 38.1875C45.1322 38.1875 48.2244 35.4286 45.6674 32.8996Z" fill="#A6AEB0"/>
<path opacity="0.6" d="M58.749 32.8996C57.0839 31.3477 58.2138 28.9911 58.2138 28.9911C58.2138 28.9911 54.7648 32.0949 56.965 34.2216C59.522 36.6931 58.2138 38.1875 58.2138 38.1875C58.2138 38.1875 61.306 35.4286 58.749 32.8996Z" fill="#A6AEB0"/>
</g>
</g>
<defs>
<filter id="filter0_d" x="0.451995" y="0.725997" width="101.969" height="99.2658" filterUnits="userSpaceOnUse" color-interpolation-filters="sRGB">
<feFlood flood-opacity="0" result="BackgroundImageFix"/>
<feColorMatrix in="SourceAlpha" type="matrix" values="0 0 0 0 0 0 0 0 0 0 0 0 0 0 0 0 0 0 127 0"/>
<feOffset dy="5.274"/>
<feGaussianBlur stdDeviation="5.274"/>
<feColorMatrix type="matrix" values="0 0 0 0 0 0 0 0 0 0 0 0 0 0 0 0 0 0 0.16 0"/>
<feBlend mode="normal" in2="BackgroundImageFix" result="effect1_dropShadow"/>
<feBlend mode="normal" in="SourceGraphic" in2="effect1_dropShadow" result="shape"/>
</filter>
</defs>
</svg>
