<svg width="100" height="98" viewBox="0 0 100 98" fill="none" xmlns="http://www.w3.org/2000/svg">
<g filter="url(#filter0_d)">
<ellipse cx="50.2645" cy="43.952" rx="39.2645" ry="37.952" fill="white"/>
</g>
<g clip-path="url(#clip0)" filter="url(#filter1_d)">
<path d="M50.2607 61.8113C59.8986 61.8113 67.7116 54.2594 67.7116 44.9437C67.7116 35.628 59.8986 28.0762 50.2607 28.0762C40.6228 28.0762 32.8098 35.628 32.8098 44.9437C32.8098 54.2594 40.6228 61.8113 50.2607 61.8113Z" fill="#F4900C"/>
<path d="M50.2607 59.8264C59.8986 59.8264 67.7116 52.2746 67.7116 42.9589C67.7116 33.6432 59.8986 26.0913 50.2607 26.0913C40.6228 26.0913 32.8098 33.6432 32.8098 42.9589C32.8098 52.2746 40.6228 59.8264 50.2607 59.8264Z" fill="#FFCC4D"/>
<path d="M50.2641 57.8425C58.2012 57.8425 64.6354 51.6234 64.6354 43.9516C64.6354 36.2799 58.2012 30.0607 50.2641 30.0607C42.3271 30.0607 35.8928 36.2799 35.8928 43.9516C35.8928 51.6234 42.3271 57.8425 50.2641 57.8425Z" fill="#FFE8B6"/>
<path d="M50.2641 56.8502C58.2012 56.8502 64.6354 50.631 64.6354 42.9593C64.6354 35.2875 58.2012 29.0684 50.2641 29.0684C42.3271 29.0684 35.8928 35.2875 35.8928 42.9593C35.8928 50.631 42.3271 56.8502 50.2641 56.8502Z" fill="#FFAC33"/>
<path d="M41.5825 36.8629C41.5825 36.3222 42.1317 36.1059 42.1317 36.1059L50.2186 32.4347L58.3826 36.1059C58.3826 36.1059 58.9451 36.2269 58.9451 36.8669V37.5029H41.5825V36.8629Z" fill="#FFE8B6"/>
<path d="M58.4029 38.8271C58.4029 38.2476 57.8845 37.7783 57.2461 37.7783H43.2104C42.5709 37.7783 42.1254 38.2476 42.1254 38.8271C42.1254 39.221 42.3348 39.5603 42.6684 39.7399V40.4007H44.8385V39.8759H47.0085V40.4007H49.1786V39.8759H51.3487V40.4007H53.5187V39.8759H55.6888V40.4007H57.8599V39.7131C58.1853 39.5266 58.4029 39.2002 58.4029 38.8271ZM60.03 49.9041C60.03 50.1128 59.9442 50.3129 59.7916 50.4605C59.6389 50.608 59.4318 50.6909 59.2159 50.6909H41.3113C41.0955 50.6909 40.8884 50.608 40.7357 50.4605C40.5831 50.3129 40.4973 50.1128 40.4973 49.9041C40.4973 49.6954 40.5831 49.4953 40.7357 49.3477C40.8884 49.2002 41.0955 49.1173 41.3113 49.1173H59.217C59.6656 49.1173 60.03 49.4695 60.03 49.9041Z" fill="#F4900C"/>
<path d="M58.9453 38.196C58.9453 38.3352 58.8881 38.4687 58.7862 38.5672C58.6844 38.6656 58.5463 38.7209 58.4022 38.7209H42.1247C41.9864 38.7127 41.8566 38.6538 41.7617 38.5563C41.6668 38.4587 41.614 38.3299 41.614 38.196C41.614 38.0621 41.6668 37.9333 41.7617 37.8358C41.8566 37.7382 41.9864 37.6794 42.1247 37.6711L58.4022 37.6741C58.4734 37.6739 58.5438 37.6872 58.6096 37.7133C58.6755 37.7394 58.7353 37.7777 58.7857 37.8262C58.8362 37.8747 58.8762 37.9323 58.9036 37.9958C58.931 38.0592 58.9451 38.1273 58.9453 38.196ZM44.2958 38.8052H56.2332V39.982H44.2958V38.8052Z" fill="#F4900C"/>
<path d="M44.8376 46.7583C44.8376 47.3377 44.5132 47.807 44.1139 47.807H43.3902C42.9909 47.807 42.6665 47.3377 42.6665 46.7583V38.8067C42.6665 38.2272 42.9909 37.7579 43.3902 37.7579H44.1139C44.5132 37.7579 44.8376 38.2272 44.8376 38.8067V46.7583ZM57.8601 46.7583C57.8601 47.3377 57.5367 47.807 57.1364 47.807H56.4127C56.0133 47.807 55.689 47.3377 55.689 46.7583V38.8067C55.689 38.2272 56.0123 37.7579 56.4127 37.7579H57.1364C57.5357 37.7579 57.8601 38.2272 57.8601 38.8067V46.7583ZM49.1788 46.7583C49.1788 47.3377 48.8544 47.807 48.4551 47.807H47.7314C47.332 47.807 47.0077 47.3377 47.0077 46.7583V38.8067C47.0077 38.2272 47.332 37.7579 47.7314 37.7579H48.4551C48.8544 37.7579 49.1788 38.2272 49.1788 38.8067V46.7583ZM53.5189 46.7583C53.5189 47.3377 53.1945 47.807 52.7952 47.807H52.0725C51.6732 47.807 51.3488 47.3377 51.3488 46.7583V38.8067C51.3488 38.2272 51.6732 37.7579 52.0725 37.7579H52.7952C53.1945 37.7579 53.5189 38.2272 53.5189 38.8067V46.7583Z" fill="#FFD983"/>
<path d="M58.4035 47.2824C58.4035 47.8619 57.918 48.3312 57.3185 48.3312H43.211C42.9232 48.3312 42.6473 48.2207 42.4438 48.024C42.2403 47.8273 42.126 47.5606 42.126 47.2824C42.126 47.0043 42.2403 46.7375 42.4438 46.5408C42.6473 46.3441 42.9232 46.2336 43.211 46.2336H57.3185C57.917 46.2336 58.4035 46.703 58.4035 47.2824Z" fill="#FFCC4D"/>
<path d="M59.487 48.3305C59.487 48.91 59.0014 49.3793 58.402 49.3793H42.1234C41.8356 49.3793 41.5596 49.2688 41.3561 49.0721C41.1526 48.8754 41.0383 48.6087 41.0383 48.3305C41.0383 48.0524 41.1526 47.7856 41.3561 47.5889C41.5596 47.3922 41.8356 47.2817 42.1234 47.2817H58.4009C59.0004 47.2817 59.487 47.7511 59.487 48.3305Z" fill="#FFD983"/>
<path d="M60.03 49.1173C60.03 49.3259 59.9442 49.5261 59.7916 49.6736C59.6389 49.8212 59.4318 49.9041 59.2159 49.9041H41.3113C41.2044 49.9041 41.0986 49.8837 40.9998 49.8442C40.9011 49.8047 40.8113 49.7467 40.7357 49.6736C40.6601 49.6006 40.6002 49.5138 40.5593 49.4184C40.5184 49.3229 40.4973 49.2206 40.4973 49.1173C40.4973 49.0139 40.5184 48.9116 40.5593 48.8162C40.6002 48.7207 40.6601 48.634 40.7357 48.5609C40.8113 48.4878 40.9011 48.4299 40.9998 48.3903C41.0986 48.3508 41.2044 48.3304 41.3113 48.3304H59.217C59.6656 48.3304 60.03 48.6827 60.03 49.1173Z" fill="#FFD983"/>
<path d="M58.4035 38.2817C58.4035 37.7022 57.8851 37.2329 57.2467 37.2329H43.211C42.5715 37.2329 42.126 37.7022 42.126 38.2817C42.126 38.6756 42.3354 39.0149 42.669 39.1945V39.8553H44.8391V39.3304H47.0091V39.8553H49.1792V39.3304H51.3493V39.8553H53.5193V39.3304H55.6894V39.8553H57.8605V39.1677C58.1859 38.9812 58.4035 38.6547 58.4035 38.2817Z" fill="#FFCC4D"/>
<path d="M41.5825 37.4652C41.5825 36.9245 42.1317 36.7082 42.1317 36.7082L50.2186 33.037L58.3826 36.7082C58.3826 36.7082 58.9451 36.8292 58.9451 37.4692V37.7579H41.5825V37.4652Z" fill="#FFD983"/>
<path d="M50.2642 34.3695C50.2642 34.3695 44.6645 36.9205 44.1061 37.1507C43.5466 37.3799 43.7334 37.7569 44.1071 37.7569H56.3946C56.9715 37.7569 56.8349 37.3313 56.3771 37.1011C55.9193 36.8719 50.2642 34.3695 50.2642 34.3695Z" fill="#FFAC33"/>
<path d="M58.9453 37.7568C58.9453 37.896 58.8881 38.0295 58.7862 38.128C58.6844 38.2264 58.5463 38.2817 58.4022 38.2817H42.1247C41.9864 38.2735 41.8566 38.2146 41.7617 38.1171C41.6668 38.0195 41.614 37.8907 41.614 37.7568C41.614 37.6229 41.6668 37.4941 41.7617 37.3966C41.8566 37.299 41.9864 37.2402 42.1247 37.2319L58.4022 37.2349C58.4734 37.2346 58.5438 37.2479 58.6096 37.274C58.6755 37.3001 58.7353 37.3385 58.7857 37.387C58.8362 37.4355 58.8762 37.4931 58.9036 37.5566C58.931 37.62 58.9451 37.6881 58.9453 37.7568Z" fill="#FFD983"/>
</g>
<defs>
<filter id="filter0_d" x="0.757734" y="0.878867" width="99.0135" height="96.3886" filterUnits="userSpaceOnUse" color-interpolation-filters="sRGB">
<feFlood flood-opacity="0" result="BackgroundImageFix"/>
<feColorMatrix in="SourceAlpha" type="matrix" values="0 0 0 0 0 0 0 0 0 0 0 0 0 0 0 0 0 0 127 0"/>
<feOffset dy="5.12113"/>
<feGaussianBlur stdDeviation="5.12113"/>
<feColorMatrix type="matrix" values="0 0 0 0 0 0 0 0 0 0 0 0 0 0 0 0 0 0 0.16 0"/>
<feBlend mode="normal" in2="BackgroundImageFix" result="effect1_dropShadow"/>
<feBlend mode="normal" in="SourceGraphic" in2="effect1_dropShadow" result="shape"/>
</filter>
<filter id="filter1_d" x="21.5444" y="20.9704" width="57.4393" height="56.2041" filterUnits="userSpaceOnUse" color-interpolation-filters="sRGB">
<feFlood flood-opacity="0" result="BackgroundImageFix"/>
<feColorMatrix in="SourceAlpha" type="matrix" values="0 0 0 0 0 0 0 0 0 0 0 0 0 0 0 0 0 0 127 0"/>
<feOffset dy="5.12113"/>
<feGaussianBlur stdDeviation="5.12113"/>
<feColorMatrix type="matrix" values="0 0 0 0 0 0 0 0 0 0 0 0 0 0 0 0 0 0 0.16 0"/>
<feBlend mode="normal" in2="BackgroundImageFix" result="effect1_dropShadow"/>
<feBlend mode="normal" in="SourceGraphic" in2="effect1_dropShadow" result="shape"/>
</filter>
<clipPath id="clip0">
<rect width="36.9548" height="35.7195" fill="white" transform="translate(31.7866 26.0916)"/>
</clipPath>
</defs>
</svg>
