<svg width="83" height="135" viewBox="0 0 83 135" fill="none" xmlns="http://www.w3.org/2000/svg">
                  <path d="M35.852 56H24.152V52.904L27.284 51.464V34.832L24.152 33.392V30.296H35.852V33.392L32.72 34.832V51.464L35.852 52.904V56ZM60.3922 30.296L51.6442 56H45.7042L36.9922 30.296H42.5002L47.3242 45.596C47.4202 45.86 47.5522 46.352 47.7202 47.072C47.9122 47.768 48.1042 48.512 48.2962 49.304C48.4882 50.072 48.6202 50.72 48.6922 51.248C48.7642 50.72 48.8842 50.072 49.0522 49.304C49.2442 48.512 49.4362 47.768 49.6282 47.072C49.8202 46.352 49.9522 45.86 50.0242 45.596L54.8842 30.296H60.3922Z" />
                  <path d="M4.19413 113.758V126.553C4.19413 126.851 4.0451 127 3.74704 127H1.93739C1.63933 127 1.4903 126.851 1.4903 126.553V113.758C1.4903 113.46 1.63933 113.311 1.93739 113.311H3.74704C4.0451 113.311 4.19413 113.46 4.19413 113.758ZM16.1506 113.311H19.3015C19.5996 113.311 19.7486 113.46 19.7486 113.758V126.553C19.7486 126.851 19.5996 127 19.3015 127H17.5558C17.2577 127 17.1087 126.851 17.1087 126.553V116.461H17.0235L14.8519 123.594C14.7668 123.877 14.5894 124.019 14.3197 124.019H12.5313C12.2617 124.019 12.0842 123.877 11.9991 123.594L9.78492 116.44H9.69976V126.553C9.69976 126.723 9.67137 126.844 9.6146 126.915C9.55782 126.972 9.43718 127 9.25267 127H7.50689C7.20883 127 7.0598 126.851 7.0598 126.553V113.758C7.0598 113.46 7.20883 113.311 7.50689 113.311H10.6791C10.8778 113.311 11.0126 113.41 11.0836 113.609L13.3403 121.124H13.4681L15.7461 113.609C15.7887 113.41 15.9235 113.311 16.1506 113.311ZM24.7643 127H22.9546C22.6566 127 22.5075 126.851 22.5075 126.553V113.758C22.5075 113.46 22.6566 113.311 22.9546 113.311H28.1494C29.2565 113.311 30.1152 113.616 30.7255 114.226C31.3358 114.822 31.6409 115.674 31.6409 116.781V118.825C31.6409 119.932 31.3358 120.79 30.7255 121.401C30.1152 121.997 29.2565 122.295 28.1494 122.295H25.4668C25.2965 122.295 25.2114 122.373 25.2114 122.529V126.553C25.2114 126.851 25.0623 127 24.7643 127ZM25.4455 119.932H27.7023C28.1565 119.932 28.4758 119.839 28.6603 119.655C28.8448 119.456 28.9371 119.137 28.9371 118.697V116.909C28.9371 116.454 28.8448 116.135 28.6603 115.95C28.4758 115.752 28.1565 115.652 27.7023 115.652H25.4455C25.2894 115.652 25.2114 115.73 25.2114 115.887V119.698C25.2114 119.854 25.2894 119.932 25.4455 119.932ZM41.206 127H34.2441C33.9461 127 33.797 126.851 33.797 126.553V113.758C33.797 113.46 33.9461 113.311 34.2441 113.311H41.206C41.4898 113.311 41.6318 113.46 41.6318 113.758V115.205C41.6318 115.503 41.4898 115.652 41.206 115.652H36.7564C36.586 115.652 36.5009 115.73 36.5009 115.887V118.654C36.5009 118.81 36.586 118.889 36.7564 118.889H40.3969C40.695 118.889 40.844 119.038 40.844 119.336V120.783C40.844 121.081 40.695 121.23 40.3969 121.23H36.7564C36.586 121.23 36.5009 121.308 36.5009 121.465V124.424C36.5009 124.58 36.586 124.658 36.7564 124.658H41.206C41.4898 124.658 41.6318 124.807 41.6318 125.105V126.553C41.6318 126.851 41.4898 127 41.206 127ZM46.2414 127H44.4317C44.1337 127 43.9846 126.851 43.9846 126.553V113.758C43.9846 113.46 44.1337 113.311 44.4317 113.311H49.4988C50.6058 113.311 51.4716 113.616 52.0961 114.226C52.7206 114.836 53.0329 115.695 53.0329 116.802V118.463C53.0329 120.067 52.4013 121.131 51.1381 121.656V121.741L53.4161 126.489C53.5439 126.83 53.4232 127 53.0542 127H51.3297C51.0742 127 50.8897 126.972 50.7762 126.915C50.6626 126.858 50.5703 126.737 50.4994 126.553L48.3704 121.954H46.944C46.7736 121.954 46.6885 122.032 46.6885 122.188V126.553C46.6885 126.851 46.5394 127 46.2414 127ZM46.9227 119.783H49.0091C49.4633 119.783 49.7968 119.69 50.0097 119.506C50.2226 119.307 50.3291 118.995 50.3291 118.569V116.909C50.3291 116.469 50.2226 116.149 50.0097 115.95C49.7968 115.752 49.4633 115.652 49.0091 115.652H46.9227C46.7665 115.652 46.6885 115.73 46.6885 115.887V119.548C46.6885 119.705 46.7665 119.783 46.9227 119.783ZM58.4379 113.758V126.553C58.4379 126.851 58.2889 127 57.9908 127H56.1812C55.8831 127 55.7341 126.851 55.7341 126.553V113.758C55.7341 113.46 55.8831 113.311 56.1812 113.311H57.9908C58.2889 113.311 58.4379 113.46 58.4379 113.758ZM62.73 127H60.6861C60.4307 127 60.3455 126.851 60.4307 126.553L63.7945 113.758C63.8938 113.46 64.1067 113.311 64.4332 113.311H67.2648C67.6196 113.311 67.8325 113.46 67.9035 113.758L71.2673 126.553C71.3524 126.851 71.2673 127 71.0118 127H68.968C68.8118 127 68.7054 126.972 68.6486 126.915C68.5918 126.844 68.5493 126.723 68.5209 126.553L67.9247 124.211H63.7732L63.1771 126.553C63.1487 126.723 63.099 126.844 63.028 126.915C62.9713 126.972 62.8719 127 62.73 127ZM65.817 115.887L64.2842 122.039H67.4351L65.9022 115.887H65.817ZM80.6059 127H73.6015C73.3035 127 73.1544 126.851 73.1544 126.553V113.758C73.1544 113.46 73.3035 113.311 73.6015 113.311H75.4112C75.7092 113.311 75.8583 113.46 75.8583 113.758V124.403C75.8583 124.559 75.9434 124.637 76.1138 124.637H80.6059C80.8898 124.637 81.0317 124.793 81.0317 125.105V126.553C81.0317 126.851 80.8898 127 80.6059 127Z" />
                  <path
                    class="line"
                    d="M80 7.44272C48.5079 -0.603474 15.5449 4.09014 3 7.44272V50.1881C11.6517 79.3556 32.5599 88.8825 41.9326 90C69.964 82.2891 78.9906 60.2459 80 50.1881V7.44272Z"
                    stroke-width="4.45765" stroke="white"
                  />
                </svg>