<svg width="51" height="51" viewBox="0 0 51 51" fill="none" xmlns="http://www.w3.org/2000/svg">
<circle cx="25.4966" cy="25.6933" r="25.0467" fill="white"/>
<path d="M25.0644 15.1081C21.0641 15.4277 19.6032 17.4419 19.6032 19.3677C19.6032 20.7435 19.3754 31.0915 19.3754 32.4673C19.3754 33.843 20.7315 35.3386 22.6141 36.2017C25.3551 37.4583 32.2156 36.9049 32.1541 32.3212C32.084 27.0834 32.1835 20.0389 32.1835 20.0389C32.1829 16.6253 29.011 14.7925 25.0644 15.1081Z" fill="#662113"/>
<path d="M20.879 21.1051C23.3463 23.1612 27.3983 23.044 29.7851 21.7769C32.0769 20.5602 32.2708 18.5801 30.7595 17.0046C29.4714 15.6616 26.3905 14.9544 23.7359 15.5594C20.7493 16.2404 18.4594 19.0882 20.879 21.1051Z" fill="#C1694F"/>
<path d="M21.5344 20.8267C23.6763 22.6118 27.0152 22.4029 29.2658 21.4102C31.3265 20.5006 31.5708 18.7844 30.1118 17.2672C28.9921 16.1029 26.3191 15.4874 24.0142 16.0125C21.4218 16.6032 19.4338 19.0758 21.5344 20.8267Z" fill="#FFE8B6"/>
<path d="M19.6963 23.7485C18.8955 23.1749 17.5256 22.122 17.2014 21.9124C16.671 21.5687 15.5101 23.042 16.4032 24.2121C17.2964 25.3823 19.0801 27.0252 19.511 29.2732C19.9425 31.5212 19.6963 23.7485 19.6963 23.7485Z" fill="#662113"/>
<path d="M17.3503 23.0708C17.4571 22.6625 17.3434 22.2791 17.0964 22.2145C16.8494 22.1499 16.5626 22.4286 16.4558 22.8369C16.349 23.2452 16.4627 23.6285 16.7097 23.6931C16.9567 23.7577 17.2435 23.4791 17.3503 23.0708Z" fill="#C1694F"/>
<path d="M25.9328 21.4947C24.4615 21.4947 22.979 20.9958 22.2606 20.4091C21.7315 19.9769 21.4598 19.398 21.5154 18.8211C21.56 18.3608 21.8356 17.6929 22.8964 17.1245C24.4195 16.308 25.9937 16.0663 27.4468 16.4245C28.9502 16.7938 30.5231 17.9679 30.3784 19.0608C30.2238 20.2185 28.0184 21.221 26.9295 21.4116C26.6003 21.468 26.2668 21.4958 25.9328 21.4947ZM26.1116 16.9189C25.1614 16.9189 24.1746 17.1828 23.2055 17.7021C22.5684 18.0432 22.2095 18.4525 22.1676 18.8847C22.1329 19.2396 22.3182 19.6108 22.6751 19.9022C23.4498 20.5348 25.3003 21.0338 26.8175 20.7666C27.9614 20.5662 29.6417 19.6259 29.7294 18.9744C29.8133 18.3444 28.5822 17.3779 27.2909 17.0603C26.905 16.9656 26.509 16.9181 26.1116 16.9189Z" fill="#D99E82"/>
<path d="M25.7794 20.0777C25.1338 20.0777 24.5313 19.9206 24.1928 19.6436C23.9093 19.4118 23.7646 19.0968 23.7953 18.7786C23.8196 18.5297 23.9623 18.1722 24.5052 17.8808C24.917 17.6602 25.8587 17.4585 26.4978 17.5246C27.2213 17.5973 28.2166 18.0936 28.1931 18.738C28.1544 19.7359 27.1152 19.9094 26.427 20.024C26.213 20.0597 25.9964 20.0777 25.7794 20.0777ZM26.2293 18.167C25.712 18.167 25.0611 18.3261 24.8136 18.4584C24.5929 18.5769 24.4587 18.7164 24.4469 18.8414C24.4377 18.9364 24.4973 19.0464 24.6066 19.1361C24.8699 19.3515 25.5817 19.5002 26.319 19.3784C27.2397 19.2252 27.5245 19.0693 27.5376 18.7131C27.5121 18.5736 26.9836 18.2311 26.4323 18.1761C26.3648 18.17 26.297 18.1669 26.2293 18.167Z" fill="#D99E82"/>
<path d="M23.0168 36.2935L23.2794 32.1799L23.6003 36.4978L23.0168 36.2935ZM30.8648 35.2143L30.9814 30.4001L31.3022 34.718L30.8648 35.2143Z" fill="#292F33"/>
<path d="M23.9507 28.8542L24.4169 25.8492L24.4758 29.1168L24.7672 32.2088L23.9507 28.8542ZM27.393 36.1475L27.2765 29.6125L27.8305 34.4555L27.393 36.1475ZM29.2016 27.1032L29.2894 22.9602L29.624 25.3005C29.6346 25.3733 29.6304 25.4475 29.6116 25.5186L29.2016 27.1032Z" fill="#C1694F"/>
</svg>
